<?xml version="1.0" standalone="no"?>
<!DOCTYPE svg PUBLIC "-//W3C//DTD SVG 20010904//EN"
 "http://www.w3.org/TR/2001/REC-SVG-20010904/DTD/svg10.dtd">
<svg version="1.0" xmlns="http://www.w3.org/2000/svg"
 width="979.000000pt" height="1280.000000pt" viewBox="0 0 979.000000 1280.000000"
 preserveAspectRatio="xMidYMid meet">
<g transform="translate(0.000000,1280.000000) scale(0.100000,-0.100000)"
fill="#000000" stroke="none">
<path d="M2487 12629 c-164 -83 -301 -157 -303 -164 -3 -7 60 -132 140 -277
80 -145 146 -269 146 -274 0 -6 -53 -46 -117 -89 -647 -430 -1214 -1021 -1610
-1680 -400 -665 -649 -1434 -713 -2195 -6 -74 -15 -182 -20 -239 -13 -134 -13
-318 0 -434 5 -51 14 -150 20 -222 79 -937 428 -1853 1000 -2620 285 -384 666
-770 1040 -1054 926 -704 2012 -1083 3215 -1120 l210 -6 3 -649 c1 -429 -1
-653 -8 -660 -7 -7 -309 -9 -900 -7 l-890 3 -2 -371 c-1 -204 -3 -410 -3 -458
l0 -88 1080 -6 c594 -3 1554 -10 2133 -14 l1052 -8 0 460 0 460 -182 6 c-99 4
-500 7 -889 7 -555 0 -710 3 -716 13 -11 17 -3 1349 8 1363 5 6 35 14 67 18
94 11 396 74 559 116 194 51 417 123 610 198 83 32 156 56 161 53 5 -3 69
-113 143 -243 73 -131 138 -238 144 -238 13 0 614 288 628 300 5 4 -34 83 -86
176 -52 93 -154 277 -227 409 -176 318 -280 495 -292 495 -5 0 -40 -17 -76
-38 -627 -362 -1355 -582 -2087 -633 -312 -22 -724 -4 -1055 46 -756 113
-1523 432 -2131 888 -597 447 -1055 992 -1383 1647 -245 489 -382 948 -452
1510 -26 206 -27 772 -1 980 90 739 331 1398 730 2000 283 426 680 844 1101
1158 226 168 555 368 771 468 58 27 105 55 105 62 0 37 -590 1102 -610 1101
-8 0 -149 -68 -313 -150z"/>
<path d="M5065 11740 c-590 -49 -1127 -197 -1640 -450 -932 -460 -1656 -1218
-2056 -2152 -324 -758 -416 -1597 -263 -2413 99 -529 320 -1069 626 -1528 596
-896 1494 -1527 2563 -1801 1387 -356 2875 -25 3961 881 849 709 1386 1705
1499 2783 40 385 42 466 16 750 -35 382 -91 658 -200 990 -124 374 -269 671
-497 1015 -501 757 -1235 1334 -2110 1658 -337 125 -669 203 -1069 253 -151
18 -674 27 -830 14z m-90 -630 c-37 -8 -40 -7 145 -66 212 -67 451 -163 655
-264 239 -118 585 -324 585 -350 0 -25 -28 -17 -93 26 -403 268 -850 473
-1334 614 -40 11 -73 24 -73 29 0 17 16 21 79 20 50 -1 59 -3 36 -9z m-705
-315 c439 -59 864 -191 1282 -400 186 -93 360 -194 356 -207 -4 -10 -93 -59
-882 -477 -360 -191 -441 -230 -451 -219 -23 25 -735 1299 -735 1315 0 14 17
15 158 10 86 -4 209 -13 272 -22z m-800 -197 c0 -6 -18 -26 -39 -45 -46 -39
-114 -154 -210 -355 -216 -451 -338 -952 -360 -1476 -7 -166 -11 -181 -48
-182 -18 0 -17 208 2 398 48 480 175 922 382 1336 98 196 142 265 192 302 47
34 81 44 81 22z m4104 -120 c308 -210 592 -479 835 -790 79 -101 191 -270 191
-287 0 -18 -846 -472 -864 -464 -6 2 -45 57 -86 120 -96 150 -220 316 -350
473 -109 130 -404 432 -525 538 -56 49 -68 63 -58 73 21 21 726 397 747 398
11 1 60 -27 110 -61z m-1260 -567 c3 -5 0 -13 -7 -19 -6 -6 -331 -180 -722
-388 -390 -207 -715 -382 -722 -388 -8 -8 21 -68 116 -236 559 -990 611 -1083
600 -1097 -6 -7 -17 -13 -23 -13 -17 0 -770 1340 -760 1350 14 14 1488 799
1501 799 6 1 14 -3 17 -8z m-3764 -153 c-34 -116 -91 -373 -115 -522 -32 -202
-46 -378 -52 -653 l-6 -283 -291 -154 c-384 -203 -394 -208 -401 -196 -7 12
-3 45 26 198 107 571 367 1135 739 1602 141 177 151 177 100 8z m6266 -756
c-3 -5 -169 -96 -368 -202 -200 -106 -382 -203 -405 -217 l-43 -24 30 -59
c156 -310 308 -756 385 -1135 42 -207 47 -272 23 -288 -9 -6 -20 -8 -24 -5 -3
4 -17 69 -31 145 -72 415 -192 803 -363 1173 -40 85 -72 161 -73 168 -1 9 135
87 343 199 480 257 514 273 524 263 4 -4 6 -13 2 -18z m-4021 -750 c204 -361
370 -665 370 -676 0 -14 -209 -130 -935 -516 -514 -274 -938 -496 -942 -494
-31 20 -189 386 -268 624 -89 267 -179 658 -192 840 l-3 45 790 421 c434 232
794 420 800 418 5 -3 177 -300 380 -662z m2801 91 c4 -16 39 -104 79 -198 126
-296 217 -582 275 -865 34 -164 70 -408 64 -425 -5 -13 -1459 -787 -1488 -792
-18 -3 -43 36 -190 299 -93 167 -261 466 -373 665 -113 199 -203 368 -201 375
5 15 1786 967 1810 967 11 1 20 -9 24 -26z m-5166 -502 c0 -15 -19 -26 -360
-206 -184 -98 -341 -183 -347 -189 -26 -24 18 -467 67 -685 63 -274 143 -510
252 -744 38 -80 40 -89 26 -104 -22 -22 -31 -13 -68 65 -206 433 -330 926
-342 1362 l-3 115 90 47 c50 27 216 115 370 198 262 139 315 163 315 141z
m2960 -655 c0 -8 -155 -96 -372 -212 -205 -108 -614 -325 -908 -481 -294 -156
-539 -288 -544 -293 -17 -17 170 -283 355 -505 161 -192 443 -467 616 -600 51
-39 69 -75 38 -75 -36 0 -378 301 -542 478 -233 251 -540 655 -531 699 2 9
271 157 648 358 355 188 771 410 925 492 154 83 288 151 298 152 9 1 17 -5 17
-13z m3724 -235 c8 -13 -51 -287 -94 -436 -116 -395 -335 -834 -578 -1157 -89
-118 -148 -185 -157 -176 -4 3 9 69 29 145 94 368 136 698 136 1075 0 203 0
207 23 223 26 19 619 334 629 335 4 0 9 -4 12 -9z m-1084 -595 c-8 -7 -289
-159 -623 -337 -335 -177 -611 -328 -614 -335 -2 -6 147 -280 332 -609 185
-328 335 -604 333 -613 -11 -59 -43 -9 -388 603 -276 490 -347 623 -337 632 7
7 300 166 652 353 419 223 643 336 649 330 7 -7 5 -15 -4 -24z m-4823 -485
c256 -379 577 -738 908 -1018 44 -37 48 -44 35 -57 -18 -17 -710 -386 -724
-386 -18 0 -290 187 -406 281 -228 182 -437 394 -611 619 -110 142 -161 222
-149 234 18 18 844 455 855 452 5 -1 47 -58 92 -125z m3495 -1001 c191 -338
348 -622 348 -631 0 -11 -28 -29 -87 -54 l-88 -38 -120 7 c-343 18 -802 130
-1195 291 -206 84 -590 285 -590 308 0 14 1348 736 1369 734 8 -1 172 -279
363 -617z m-2157 -360 c0 -7 -132 -83 -292 -169 -161 -86 -293 -159 -293 -162
0 -17 352 -138 549 -189 122 -31 427 -90 466 -90 19 0 35 -5 35 -10 0 -7 -13
-9 -32 -6 -18 3 -71 11 -118 16 -148 19 -261 40 -405 76 -240 61 -560 176
-560 202 0 14 623 353 640 348 6 -1 10 -9 10 -16z"/>
</g>
</svg>
