<?xml version="1.0" standalone="no"?>
<!DOCTYPE svg PUBLIC "-//W3C//DTD SVG 20010904//EN"
 "http://www.w3.org/TR/2001/REC-SVG-20010904/DTD/svg10.dtd">
<svg version="1.0" xmlns="http://www.w3.org/2000/svg"
 width="1280.000000pt" height="1280.000000pt" viewBox="0 0 1280.000000 1280.000000"
 preserveAspectRatio="xMidYMid meet">
<g transform="translate(0.000000,1280.000000) scale(0.100000,-0.100000)"
fill="#000000" stroke="none">
<path d="M6190 12797 c-3 -3 -102 -13 -220 -22 -534 -40 -959 -119 -1447 -266
-576 -173 -1183 -464 -1699 -813 -593 -402 -1112 -897 -1542 -1469 -606 -806
-1010 -1745 -1182 -2748 -142 -830 -125 -1605 55 -2444 341 -1592 1321 -3028
2690 -3945 593 -397 1249 -692 1945 -874 372 -98 732 -156 1190 -193 382 -31
762 -19 1210 37 1283 160 2466 694 3445 1555 156 137 478 465 619 630 649 760
1105 1642 1345 2603 84 333 139 664 165 992 9 102 20 235 27 295 30 288 -20
952 -106 1425 -201 1097 -694 2130 -1430 2995 -163 191 -506 534 -700 699
-1158 987 -2561 1511 -4130 1543 -126 3 -232 3 -235 0z m750 -73 c1411 -121
2724 -700 3765 -1660 66 -61 181 -174 255 -250 136 -141 377 -414 386 -439 3
-8 -7 -30 -22 -50 -26 -35 -27 -37 -14 -89 7 -32 10 -72 6 -99 -9 -57 4 -66
46 -34 45 34 136 61 155 46 25 -21 83 -107 83 -122 0 -19 -57 -32 -92 -22 -12
4 -35 21 -49 37 -38 45 -68 34 -159 -62 -62 -64 -87 -83 -142 -105 -37 -15
-75 -25 -85 -23 -30 6 -18 41 28 78 89 72 121 111 115 139 -3 14 -12 57 -21
95 -15 66 -15 70 5 108 11 21 20 45 20 53 0 15 -166 115 -191 115 -9 0 -57
-36 -107 -80 -49 -44 -96 -80 -104 -80 -25 0 -58 -31 -58 -54 0 -27 18 -44 88
-82 56 -29 76 -53 66 -77 -12 -32 -73 -27 -182 13 -29 11 -63 20 -76 20 -12 0
-56 9 -97 20 -41 11 -106 20 -145 20 -68 0 -72 -1 -128 -45 -75 -58 -87 -61
-141 -34 -42 21 -50 22 -91 11 -27 -7 -66 -10 -94 -6 -41 5 -54 3 -81 -17 -32
-22 -32 -22 -95 -6 -84 23 -106 22 -167 -10 -46 -23 -64 -27 -155 -28 l-103 0
-40 -43 c-67 -70 -105 -47 -67 42 30 67 22 76 -61 76 -101 0 -117 -27 -80
-128 5 -13 9 -41 9 -63 0 -32 -4 -39 -19 -39 -11 0 -28 15 -40 35 -23 40 -35
42 -99 16 -26 -11 -67 -25 -92 -33 -42 -12 -45 -15 -52 -58 -4 -25 -15 -51
-25 -57 -26 -20 -94 -16 -128 7 -38 25 -55 25 -99 -1 -21 -12 -48 -19 -68 -17
-31 3 -33 5 -38 50 -4 34 -14 56 -35 78 -43 44 -24 53 65 29 104 -28 212 -22
343 21 55 18 97 38 97 45 0 28 -137 69 -285 85 -133 14 -202 31 -346 85 -127
47 -209 65 -396 85 -222 24 -381 2 -763 -105 l-125 -36 -63 -69 c-136 -150
-327 -289 -448 -325 -79 -25 -180 -78 -219 -115 -18 -18 -18 -23 -6 -67 8 -27
17 -69 21 -96 13 -92 72 -139 176 -140 l64 -1 53 57 c29 31 56 57 59 57 15 0
38 -13 38 -22 0 -5 14 -44 31 -86 19 -48 28 -87 25 -103 -3 -15 1 -34 8 -44
11 -16 20 -15 147 9 151 30 197 48 204 83 3 13 8 35 11 50 3 15 34 56 70 92
86 88 86 115 -4 142 -55 16 -68 32 -54 64 17 36 82 74 145 85 71 11 105 29
150 79 29 32 37 49 37 79 0 21 5 43 12 50 8 8 53 12 135 12 107 0 125 -2 130
-17 10 -25 -53 -75 -177 -142 -68 -36 -110 -65 -120 -83 -14 -27 -13 -31 25
-104 22 -41 47 -79 56 -84 10 -6 38 -1 80 14 50 17 99 24 205 30 154 7 170 3
199 -54 26 -51 9 -57 -182 -65 -92 -3 -188 -10 -213 -14 l-45 -7 48 -28 c90
-53 45 -100 -70 -72 -43 11 -69 13 -87 6 -38 -14 -78 -92 -85 -164 l-6 -61
-40 1 c-22 1 -68 7 -101 13 -60 12 -65 12 -173 -24 l-111 -38 -52 23 c-44 19
-62 21 -119 16 -65 -7 -67 -7 -93 24 -28 34 -30 40 -26 118 l2 52 -41 0 c-63
0 -109 -23 -126 -64 -23 -55 -19 -91 15 -129 37 -42 40 -72 8 -64 -63 16 -128
18 -163 7 -20 -7 -68 -39 -107 -72 -60 -52 -78 -62 -134 -74 -35 -7 -68 -15
-73 -18 -5 -3 -14 -26 -20 -51 -14 -55 -18 -57 -171 -85 -63 -12 -135 -30
-159 -41 -24 -11 -63 -22 -85 -25 -23 -4 -48 -10 -56 -15 -17 -9 -8 -12 109
-50 48 -15 86 -35 109 -56 33 -32 34 -35 30 -95 -2 -35 -13 -81 -23 -103 -26
-51 -51 -56 -220 -45 -71 5 -167 9 -213 10 -76 0 -85 -2 -109 -26 -24 -24 -25
-30 -19 -97 3 -40 9 -88 12 -107 5 -29 0 -42 -25 -74 -17 -21 -31 -47 -31 -56
0 -10 21 -43 46 -74 l46 -56 65 0 c69 0 62 4 125 -73 l23 -29 25 39 25 38 93
7 c107 8 137 21 211 87 47 42 52 50 42 69 -19 35 -13 53 32 94 59 56 97 78
133 78 43 0 69 26 84 82 7 26 21 55 32 64 17 16 24 17 76 5 118 -28 134 -27
215 18 110 60 157 54 208 -28 41 -68 106 -113 217 -152 125 -43 151 -62 189
-139 42 -84 58 -85 58 -2 0 71 9 81 65 82 l35 1 -29 24 c-16 13 -74 47 -128
75 -73 38 -109 64 -140 101 -23 27 -57 59 -75 70 -19 12 -41 32 -50 45 -19 29
-11 70 16 77 25 6 86 -22 130 -59 33 -28 142 -108 264 -194 39 -28 65 -56 81
-89 14 -26 41 -69 60 -94 20 -26 56 -86 80 -135 56 -111 64 -119 108 -97 46
22 128 83 135 101 8 20 -23 62 -63 86 -19 11 -34 26 -34 34 0 7 21 25 48 38
26 14 61 34 77 45 37 26 81 27 94 3 5 -9 12 -59 16 -109 8 -102 14 -111 80
-139 22 -9 54 -27 71 -40 44 -33 115 -49 155 -35 24 8 47 7 101 -5 68 -16 74
-15 163 6 128 31 130 30 128 -53 -2 -124 -42 -215 -142 -324 -28 -32 -109 -32
-151 -1 -30 21 -30 21 -112 4 -102 -22 -120 -32 -183 -95 -47 -48 -77 -62 -89
-42 -11 17 4 36 69 86 69 53 83 74 63 87 -7 4 -71 8 -143 8 -115 0 -138 3
-200 26 -106 40 -138 41 -187 9 -23 -16 -63 -47 -88 -71 -25 -24 -58 -48 -73
-53 -37 -14 -154 10 -214 44 -88 51 -117 64 -183 81 -36 8 -95 33 -131 55 -36
21 -70 39 -76 39 -7 0 -21 12 -32 26 -26 33 -14 59 30 69 40 9 44 24 25 83
-30 88 -103 130 -178 102 -20 -8 -113 -15 -243 -19 l-210 -7 -202 -77 -201
-76 -84 6 c-95 6 -109 2 -212 -73 -33 -24 -65 -44 -71 -44 -38 0 -115 -138
-115 -205 0 -92 -12 -109 -114 -164 -156 -84 -185 -112 -254 -248 -33 -65 -72
-135 -87 -157 -40 -59 -41 -83 -6 -186 20 -60 31 -112 31 -149 0 -51 -5 -66
-46 -132 -26 -41 -55 -86 -65 -101 -18 -26 -18 -27 4 -54 18 -24 22 -40 20
-98 -1 -38 2 -77 7 -86 5 -9 40 -33 77 -53 87 -46 148 -98 175 -151 11 -22 36
-61 56 -85 55 -68 321 -291 346 -291 16 0 27 11 39 35 24 50 67 59 249 51 173
-8 189 -5 349 70 193 89 255 75 332 -78 38 -76 102 -83 184 -22 42 32 54 30
118 -13 77 -50 82 -82 24 -154 -14 -18 -24 -49 -29 -100 -5 -41 -16 -94 -24
-118 -24 -66 -21 -86 17 -110 51 -32 89 -77 181 -217 l86 -132 0 -93 c0 -86 2
-96 34 -153 56 -101 56 -99 -13 -167 -92 -91 -106 -123 -105 -244 1 -121 12
-154 118 -339 97 -169 107 -198 115 -336 7 -111 9 -118 46 -175 21 -33 57 -82
81 -109 48 -53 85 -153 103 -277 11 -82 23 -104 63 -125 66 -34 87 -35 145 -8
48 23 70 27 185 30 160 4 175 7 260 51 67 35 94 60 330 308 106 112 112 123
98 176 -18 66 -8 85 63 120 34 17 77 42 95 56 40 30 42 62 7 170 -14 43 -25
90 -25 104 0 32 74 136 118 168 17 11 68 39 115 60 74 34 87 44 115 90 60 97
64 113 66 289 l2 164 -37 42 c-20 23 -42 60 -47 81 -21 84 -34 196 -30 245 5
45 11 57 64 113 32 35 93 105 134 156 104 130 219 237 268 252 75 22 133 77
177 165 22 45 71 125 110 180 55 78 76 119 102 199 18 55 33 115 33 133 0 31
-1 32 -44 32 -51 0 -141 -26 -276 -80 -193 -78 -270 -65 -270 45 0 45 -6 61
-41 114 -23 34 -59 76 -81 94 -78 62 -109 103 -164 217 -31 63 -73 138 -95
166 -21 28 -57 93 -78 145 -21 52 -79 178 -130 280 -50 102 -91 191 -91 197 0
12 97 36 125 31 21 -5 97 -139 118 -209 9 -31 24 -51 45 -65 31 -20 52 -53 52
-81 0 -8 14 -51 31 -96 29 -74 39 -89 117 -162 102 -97 128 -147 166 -320 14
-66 34 -136 43 -155 l18 -36 70 1 c78 1 122 15 293 93 62 29 146 60 185 70 40
10 88 28 108 40 19 11 64 30 100 42 126 42 236 136 342 294 37 55 74 110 83
122 15 21 15 25 0 48 -25 38 -104 92 -169 117 -47 17 -64 30 -84 61 l-26 41
-26 -31 c-27 -32 -123 -97 -179 -120 -42 -17 -72 -3 -72 34 0 17 -14 38 -42
64 -24 22 -47 39 -51 39 -4 0 -19 24 -32 53 -13 29 -46 74 -75 102 -86 83 -98
122 -53 175 52 62 97 60 128 -7 35 -75 73 -119 127 -148 29 -16 80 -46 112
-67 33 -21 68 -38 78 -38 10 0 41 11 68 25 74 38 89 34 150 -36 30 -34 70 -68
89 -77 38 -16 355 -31 403 -19 14 4 37 18 52 32 47 44 83 35 144 -35 43 -49
60 -61 93 -66 59 -10 89 -38 89 -82 0 -89 45 -160 93 -148 13 3 45 22 71 42
26 20 50 33 54 29 4 -4 7 -66 7 -138 0 -117 3 -142 28 -222 34 -106 130 -301
199 -403 63 -94 88 -147 88 -195 0 -42 24 -107 39 -107 13 0 46 46 99 135 57
96 92 223 101 363 9 135 18 152 115 201 55 28 94 63 209 181 78 81 151 151
162 157 11 6 66 14 123 18 97 7 105 9 143 41 23 19 47 34 53 34 17 0 38 -26
58 -70 8 -19 43 -68 77 -108 71 -86 67 -53 51 -415 -102 -2280 -1431 -4336
-3470 -5366 -768 -388 -1540 -604 -2405 -671 -210 -17 -777 -14 -985 5 -395
34 -680 82 -1053 176 -960 242 -1880 728 -2626 1388 -211 187 -571 555 -571
584 0 7 20 41 45 75 45 62 57 108 31 118 -8 3 -30 29 -50 59 -37 56 -54 131
-42 179 10 40 23 31 31 -21 4 -27 15 -67 25 -91 21 -47 46 -61 125 -69 44 -4
56 -1 95 26 25 16 76 61 112 98 52 55 67 77 73 110 3 24 17 57 29 75 18 27 29
33 56 33 30 0 39 6 65 46 16 25 47 63 69 85 37 38 38 40 32 94 -3 30 -9 70
-12 87 -9 45 24 74 167 146 86 44 135 62 199 74 161 29 150 23 198 115 23 46
57 102 74 125 25 34 32 54 33 95 2 29 12 85 24 125 19 59 21 78 12 110 -14 50
-14 99 1 126 6 12 59 69 118 127 105 104 107 106 148 211 49 124 51 156 17
215 -33 55 -64 77 -151 103 -52 15 -82 32 -115 62 -71 66 -91 73 -204 74
l-100 0 -116 67 c-119 69 -212 98 -251 77 -23 -12 -55 -59 -63 -92 -9 -35 -33
-48 -79 -40 -48 7 -53 18 -20 40 15 10 42 32 61 49 84 80 -1 148 -87 70 -42
-38 -105 -55 -139 -36 -43 22 -22 52 52 74 78 24 137 63 137 92 0 38 -16 61
-52 73 -24 8 -40 24 -57 57 -39 73 -106 140 -174 174 -60 30 -64 30 -158 24
l-96 -7 -29 39 c-16 21 -53 62 -82 91 -48 48 -57 53 -97 53 -24 0 -47 5 -50
10 -3 6 -17 10 -30 10 -36 0 -38 14 -11 67 25 47 44 113 33 113 -3 0 -15 -16
-27 -35 -27 -43 -52 -45 -91 -5 -58 58 -151 51 -182 -13 -9 -20 -22 -37 -29
-37 -6 0 -28 18 -48 40 -41 45 -68 50 -124 24 -44 -21 -60 -15 -86 36 -23 44
-42 50 -90 25 -41 -21 -69 -65 -80 -126 -18 -92 -52 -83 -65 16 -5 47 -3 64
19 110 22 50 23 57 9 62 -26 10 -199 -85 -247 -136 -22 -24 -60 -63 -82 -87
-34 -36 -48 -44 -77 -44 -28 0 -40 6 -56 29 -11 15 -34 34 -50 41 -16 6 -32
18 -35 26 -22 57 -44 839 -24 859 4 4 50 -18 102 -49 98 -58 176 -81 191 -56
12 19 -44 69 -84 75 -62 10 -104 26 -158 61 -53 34 -53 34 -53 87 0 109 40
476 75 691 16 103 31 123 130 178 33 19 61 41 63 51 2 9 -6 31 -19 48 -12 17
-24 51 -27 75 -4 42 -3 44 21 44 14 0 29 -4 32 -10 10 -16 33 -12 55 10 16 16
19 28 14 58 -7 42 5 58 46 64 21 2 25 9 26 37 1 49 23 60 118 60 78 0 128 10
139 29 3 4 -3 21 -14 38 -10 16 -19 41 -19 55 0 53 81 109 158 109 29 0 50 8
77 30 21 17 46 29 54 28 14 -3 18 -16 37 -105 6 -33 56 -30 113 6 30 19 81 37
146 50 55 12 122 27 148 33 27 6 51 17 54 25 6 16 -24 88 -44 105 -11 9 -21 4
-46 -20 -52 -50 -107 -40 -107 19 0 37 -11 42 -46 18 -39 -25 -56 -24 -84 6
-23 25 -23 26 -7 54 22 38 22 44 -9 75 -34 34 -76 34 -150 1 -58 -26 -158 -55
-188 -55 -39 0 -17 19 157 137 83 56 120 65 172 41 21 -9 31 -9 46 0 29 18 39
7 39 -42 0 -58 15 -70 66 -53 21 8 43 23 48 34 7 14 23 23 48 27 21 4 55 15
76 26 20 11 51 23 68 26 18 3 47 21 65 40 38 39 82 46 99 15 16 -31 13 -40
-31 -79 -34 -31 -109 -159 -109 -187 0 -3 52 -5 114 -4 97 3 118 0 134 -14 17
-16 22 -16 55 -2 45 19 65 19 99 1 22 -12 27 -12 32 -1 5 13 -68 144 -88 157
-6 4 -32 8 -58 8 -48 0 -138 35 -138 53 0 6 25 50 56 99 64 101 64 103 -18
128 -43 13 -58 24 -82 59 -39 58 -100 101 -145 102 -63 2 -84 13 -121 66 -55
79 -240 273 -260 273 -10 0 -40 -24 -67 -54 -66 -73 -94 -90 -143 -83 -54 7
-110 43 -110 70 0 12 22 60 49 107 45 79 51 85 84 88 24 2 40 11 51 28 20 30
57 31 109 4 54 -29 61 -27 53 22 -8 49 -25 71 -83 105 -24 14 -43 29 -43 35 0
19 42 68 58 68 9 0 37 -14 62 -30 25 -17 58 -30 75 -30 37 0 125 50 155 87 25
33 27 32 -84 57 -68 16 -116 46 -116 72 0 14 232 326 325 437 31 38 63 71 71
74 20 7 63 -16 81 -44 8 -12 21 -64 29 -115 26 -164 24 -161 86 -93 33 36 48
45 75 45 50 0 86 -23 129 -81 42 -57 50 -107 22 -135 -14 -14 -19 -14 -44 -2
-27 13 -29 17 -29 73 l0 60 -56 3 c-53 3 -58 1 -83 -28 -26 -31 -34 -81 -18
-107 4 -6 28 -14 55 -18 58 -9 66 -19 38 -53 -44 -56 -45 -64 -13 -135 30 -66
74 -107 114 -107 23 0 32 -18 18 -35 -8 -10 -4 -25 20 -64 24 -39 45 -58 92
-83 33 -18 82 -52 109 -76 l50 -44 47 18 c26 10 51 19 56 19 5 0 19 -18 30
-40 27 -52 70 -59 126 -20 44 30 57 58 63 133 2 29 7 55 11 59 3 3 23 6 45 5
52 -2 65 15 56 77 -6 44 -4 50 16 65 13 9 30 16 39 16 8 0 44 14 78 30 58 27
73 30 169 30 l106 0 54 59 c51 57 56 60 111 66 174 19 267 37 344 66 45 18
105 34 132 36 27 1 51 5 54 8 11 11 -53 66 -90 77 -21 6 -40 19 -43 28 -8 24
14 68 37 75 39 13 98 -22 98 -59 0 -12 7 -32 16 -44 30 -43 124 -20 124 30 0
10 -11 41 -25 68 -32 63 -33 105 -2 122 14 8 59 13 122 13 l100 0 7 75 c10
101 14 113 44 149 29 35 26 46 -14 54 -47 9 -66 72 -38 125 30 57 241 230 331
272 77 35 101 61 96 107 -1 17 -94 43 -152 43 -64 0 -85 -9 -150 -65 -136
-119 -220 -108 -305 38 -20 34 -46 80 -59 102 -13 22 -27 58 -30 80 -4 22 -11
56 -16 76 l-9 37 -132 0 c-123 1 -137 -1 -203 -27 -56 -23 -82 -28 -118 -24
-35 4 -65 -1 -115 -18 -57 -20 -85 -24 -187 -23 -79 0 -130 5 -150 14 -28 13
-24 14 75 21 93 6 245 29 393 61 28 6 45 14 40 19 -11 11 -271 59 -358 66 -42
3 -113 -2 -177 -11 -105 -16 -142 -14 -135 8 4 15 141 108 312 213 868 534
1841 848 2855 923 300 22 714 20 1010 -6z m4494 -2456 c16 -23 13 -38 -9 -38
-17 0 -38 36 -30 50 10 16 23 12 39 -12z m-3207 -719 c34 -12 83 -58 83 -76 0
-7 -11 -20 -25 -29 -47 -31 -165 16 -165 66 0 43 49 61 107 39z m1522 -1029
c48 -21 131 -112 131 -144 0 -39 -119 -53 -179 -22 -19 10 -43 15 -57 12 -34
-9 -64 -45 -64 -78 0 -22 5 -28 23 -28 29 -1 46 -15 86 -73 23 -34 47 -54 77
-67 51 -22 55 -39 19 -81 l-24 -29 24 -36 c33 -48 57 -126 59 -187 1 -51 1
-52 -39 -65 -70 -24 -151 -20 -255 12 -117 36 -141 56 -148 125 -5 61 5 76 56
85 21 3 54 21 77 40 53 46 42 64 -58 94 -81 24 -95 37 -186 166 -48 70 -52
105 -17 157 35 51 79 70 136 59 79 -16 96 -12 162 34 73 51 106 56 177 26z
m-1511 -79 c15 -15 41 -51 57 -79 17 -28 35 -53 41 -56 28 -11 125 58 147 104
15 32 71 60 119 60 61 0 62 -36 1 -65 -41 -20 -34 -32 33 -58 69 -26 273 -166
289 -198 39 -75 12 -97 -142 -111 -129 -12 -131 -12 -268 46 -47 20 -77 26
-141 26 -74 0 -84 -2 -130 -32 -45 -30 -57 -33 -149 -38 -55 -3 -110 -11 -122
-18 -12 -6 -31 -12 -42 -12 -19 0 -20 4 -15 59 4 39 3 61 -5 65 -6 4 -11 20
-11 37 0 22 13 42 58 87 32 31 77 85 100 119 50 74 75 93 120 93 25 0 41 -8
60 -29z m-8088 -2861 c13 -28 29 -55 36 -61 7 -5 18 -33 24 -61 11 -43 10 -63
-5 -132 -32 -142 -44 -131 -74 63 -34 227 -36 241 -19 241 8 0 25 -23 38 -50z
m8220 -515 c43 -52 -73 -232 -134 -209 -53 20 -47 186 7 212 34 16 112 15 127
-3z m-7688 -1322 c21 -21 44 -55 53 -75 17 -43 20 -128 4 -128 -12 0 -120 221
-113 232 9 14 19 9 56 -29z"/>
<path d="M10788 10671 c-42 -34 -103 -43 -228 -37 -98 5 -141 2 -291 -22
l-176 -28 -49 -42 c-31 -26 -106 -67 -195 -107 -139 -64 -199 -105 -199 -139
0 -15 10 -20 70 -31 19 -4 74 -22 122 -41 102 -39 154 -43 192 -13 36 28 33
59 -9 96 -19 17 -35 36 -35 41 0 35 114 113 240 162 76 30 278 45 408 31 93
-10 99 -10 147 14 28 13 68 42 89 64 33 34 37 42 26 56 -18 21 -82 19 -112 -4z"/>
<path d="M4077 9870 c-17 -24 -14 -39 16 -85 32 -48 47 -55 115 -55 61 0 66
-2 96 -35 25 -27 40 -35 67 -35 47 0 153 34 184 58 14 11 49 23 78 27 36 5 61
15 80 33 39 37 35 56 -20 80 -63 27 -95 29 -168 15 -33 -7 -98 -17 -144 -22
-79 -10 -87 -10 -120 10 -23 14 -60 23 -102 27 -60 4 -68 2 -82 -18z"/>
<path d="M5501 9306 c-38 -32 -45 -35 -91 -29 -47 5 -49 4 -56 -21 -8 -32 27
-94 83 -148 28 -28 62 -46 123 -66 102 -34 112 -53 50 -91 -55 -34 -114 -96
-107 -114 3 -8 26 -24 51 -36 41 -19 46 -24 40 -46 -8 -31 0 -31 53 -3 l41 22
95 -18 c53 -10 109 -15 125 -11 42 9 92 61 92 96 0 35 -47 90 -106 125 -24 14
-73 62 -110 105 l-66 80 7 50 c5 35 3 54 -7 66 -16 19 -132 73 -158 73 -10 0
-37 -16 -59 -34z"/>
<path d="M5300 9093 c-8 -3 -28 -18 -45 -33 -16 -15 -43 -31 -60 -35 -48 -11
-53 -19 -41 -74 8 -44 7 -53 -9 -71 -18 -20 -18 -21 2 -48 32 -44 82 -42 181
8 65 33 87 49 99 75 20 42 10 116 -20 151 -22 25 -77 39 -107 27z"/>
<path d="M6486 8021 c-27 -30 -18 -83 16 -95 23 -8 32 -6 53 14 30 29 31 40 4
74 -24 31 -49 33 -73 7z"/>
<path d="M6065 7961 c-3 -5 -1 -12 5 -16 12 -7 30 2 30 16 0 12 -27 12 -35 0z"/>
<path d="M6805 7841 c-3 -6 5 -17 17 -26 127 -89 132 -91 163 -77 29 14 32 41
8 71 -23 29 -174 54 -188 32z"/>
<path d="M147 6853 c-25 -24 12 -50 46 -32 20 11 20 12 2 25 -21 15 -38 18
-48 7z"/>
<path d="M606 6489 c-21 -5 -61 -26 -89 -46 -43 -32 -47 -38 -31 -44 10 -4 37
-8 59 -8 23 -1 61 -12 88 -26 48 -26 48 -26 107 -9 49 14 63 14 75 4 23 -19
39 1 30 39 -11 51 -97 102 -169 100 -17 -1 -48 -5 -70 -10z"/>
<path d="M997 6403 c-11 -10 -8 -61 4 -68 21 -14 59 5 59 28 0 36 -41 63 -63
40z"/>
<path d="M174 6326 c-12 -31 0 -61 25 -61 31 0 50 28 35 53 -14 22 -52 28 -60
8z"/>
<path d="M11744 5705 c-25 -39 -31 -157 -10 -190 33 -50 106 -9 108 61 1 33
-50 146 -69 152 -6 2 -19 -8 -29 -23z"/>
<path d="M9397 4047 c-65 -100 -139 -165 -209 -184 -101 -26 -122 -59 -94
-148 22 -72 21 -152 -4 -193 -24 -39 -25 -79 -5 -146 8 -27 15 -73 15 -103 0
-74 28 -103 100 -103 28 0 64 7 80 15 35 18 78 99 105 195 9 36 28 90 42 120
37 83 123 347 133 406 10 60 -6 157 -33 198 -12 18 -26 26 -47 26 -26 0 -36
-10 -83 -83z"/>
</g>
</svg>
